<svg id="Layer_1" data-name="Layer 1" xmlns="http://www.w3.org/2000/svg" width="706.03" height="335.09" viewBox="0 0 706.03 335.09"><defs><style>.cls-1{opacity:0.2;}.cls-2,.cls-4,.cls-5{fill:#8e8e8e;}.cls-3{opacity:0.84;}.cls-4{opacity:0.6;}.cls-5,.cls-6{opacity:0.83;}.cls-6{fill:#706e6e;}.cls-7{fill:#db1534;}.cls-8{fill:#da1934;}</style></defs><title>stakentake</title><g class="cls-1"><path id="node1" class="cls-2" d="M624.44,142.63a20,20,0,0,1-20,20l-64.13-.06c-3.5,1-19.09-10.74-56.43-35.57-5.51-3.48-13.53-8.69-17.79-11.42-4.51-2.73-13-8.19-19-11.92-11.06-7-19.55-12.31-26-16.23a20,20,0,0,0-28.17,8.06c-1.69,3.35-3.5,7-5.34,10.83-15.41,31-22.64,40-34.14,42.25-12.5,2.28-30.28-6.4-35.06-17.61-3.53-8.72-3.28-9.47,5.17-28.2,21.13-45.2,39.53-61.08,46.26-67.58l1.81-1.9a20,20,0,0,1,14.46-6.22l218.27-.28a20,20,0,0,1,20,19.94Z" transform="translate(0.07 -0.36)"/><path id="node2" class="cls-2" d="M81.45,143.67a18.89,18.89,0,0,0,18.89,18.89H165c1.5,0,1.46-6.71,9.42-21.69,9.58-12.2,23.65-10.8,37.16-10.84,10,0,25.79,9.65,32.82,19.86,5,7.47,7,8.46,15,7.94,12.75-1,30.78,8.39,35.56,18.35,3.52,7.22,4.52,7.72,16.53,7.43,15.5,0,32.54,9.63,36.82,21.09,2.52,6.48,3.77,7,10.52,5.71,10.25-1.78,27,4.91,35.05,14.36,7.28,8.71,8.06,19.43,2.35,33.16-3.23,7.74-3.22,9.74-.47,11.72,1.75,1.24,10.77,6.7,20.29,12.41,9.27,5.46,17.54,10.92,18.29,12.17s4.76,2.23,8.76,2.22c11.75,0,22.22-11.79,22.18-24.76,0-11.47-.54-12-42.37-38C401.4,220,394.37,211.8,404.63,211.77c2.5,0,18.53,8.67,35.82,19.6,17,10.67,33.57,20.1,36.57,21.09,12.26,3.71,25.73-9.8,25.68-26,0-7.48-8.3-15.19-28.84-27.35-34.32-20.1-58.63-37.49-57.39-41,2.73-7,3.48-6.49,63.61,31.49,16.79,10.68,33.07,19.36,36.32,19.35,10.25,0,19-10,20.44-22.76,1.22-10,.46-12.22-4.55-15.7-7.52-5.46-57.63-36.74-70.9-44.19-16.78-9.68-18.54-10.67-21.8-13.65-2-1.49-9.77-6.21-17.54-10.42C408.79,95,407.79,94.79,404,99c-2,2.25-5.48,8.25-7.71,13-17.65,38-27.87,47.47-50.88,47.53-13.75,0-25.53-6.91-34.07-20.35-7-11-6.84-30.91.13-40.65,3.74-5.5,38.61-53.65,45.82-69.88H98.55a17.1,17.1,0,0,0-17.1,17.1Z" transform="translate(0.07 -0.36)"/><path id="node3" class="cls-2" d="M198.88,150.52c-7.23,7-36.33,64-36.3,71.68,0,9,4,14,15.06,18.91,16.28,7.19,20,3.68,41.65-38,20.39-39.46,20.88-43.71,5.1-53.14C213.62,143.49,206.62,143.76,198.88,150.52Z" transform="translate(0.07 -0.36)"/><path id="node4" class="cls-2" d="M257.46,171.79c-7.75,2.52-12.23,9-28.64,41.23-19.15,37.22-19.63,43.2-5.35,51.64,10,6.21,19.52,6.18,26.26.42,5.49-4.75,37.82-67.45,37.8-73.68C287.5,182.43,266.71,168.52,257.46,171.79Z" transform="translate(0.07 -0.36)"/><path id="node5" class="cls-2" d="M300.56,201.35c-7.23,6.26-37.82,66-37.8,73.93,0,7.48,7,14.69,18.06,19.4,12.77,5.2,18.76-.3,37.66-35.28,13.68-25.73,16.66-33,16.14-41.2-.77-8-2.28-10.72-9.3-15.44C315.05,195.82,307.3,195.59,300.56,201.35Z" transform="translate(0.07 -0.36)"/><path id="node6" class="cls-2" d="M356.4,224.38c-7.24,2.76-8.49,4.76-27.39,41.73-18.65,36.72-19.38,42.21-5.35,50.64,10.77,6.7,22,6.42,28.51-.83,2.74-3,12.2-19.74,20.9-37.22,13.68-27.22,15.41-32.72,13.39-38.45C382.17,228.79,366.39,220.36,356.4,224.38Z" transform="translate(0.07 -0.36)"/><path id="node7" class="cls-2" d="M375.37,298.15c-5.72,10.24-9.95,19-9.7,19.48.5.5,7.77,4.72,16.28,9.93,11.77,6.95,16.78,8.93,22,7.42,9.25-2.27,16.47-13.52,16.43-25.49,0-9.48-.78-10.47-15.81-20.16-8.77-5.46-16.53-10.18-17.29-10.18C386.32,279.16,381.09,287.65,375.37,298.15Z" transform="translate(0.07 -0.36)"/></g><g class="cls-3"><polygon class="cls-4" points="36.02 129.22 81.52 129.22 36.02 116.89 36.02 129.22"/><polygon class="cls-4" points="36.02 46.98 36.02 59.31 36.02 116.89 81.52 129.22 81.52 46.98 36.02 46.98"/><polygon class="cls-5" points="0 59.31 18.5 88.1 36.02 116.89 36.02 59.31 0 59.31"/><polygon class="cls-6" points="0 116.89 36.02 116.89 18.5 88.1 0 116.89"/></g><g class="cls-3"><polygon class="cls-4" points="670.01 129.22 624.51 129.22 670.01 116.89 670.01 129.22"/><polygon class="cls-4" points="670.01 46.98 670.01 59.31 670.01 116.89 624.51 129.22 624.51 46.98 670.01 46.98"/><polygon class="cls-5" points="706.03 59.31 687.53 88.1 670.01 116.89 670.01 59.31 706.03 59.31"/><polygon class="cls-6" points="706.03 116.89 670.01 116.89 687.53 88.1 706.03 116.89"/></g><rect class="cls-7" x="353.67" width="183.14" height="26.71"/><polygon class="cls-7" points="412.49 26.71 445.24 201.64 477.99 26.71 412.49 26.71"/><path class="cls-8" d="M66.61,68.8a5.43,5.43,0,0,0-2,4.41,5,5,0,0,0,2.47,4.36q2.47,1.62,11.43,3.83T92.39,88q4.95,4.41,4.95,12.87A17,17,0,0,1,91,114.61q-6.34,5.26-16.7,5.26-14.94,0-26.91-11.07l8.37-10.26q10.17,8.91,18.81,8.91a9.87,9.87,0,0,0,6.08-1.67,5.34,5.34,0,0,0,2.21-4.5,5.25,5.25,0,0,0-2.34-4.5q-2.34-1.66-9.27-3.37-11-2.61-16.06-6.79T50.09,73.48q0-9,6.44-13.82T72.59,54.8A38.65,38.65,0,0,1,85.19,57a33.76,33.76,0,0,1,11,6.12L89.06,73.34q-8.19-6.21-16.92-6.21A8.47,8.47,0,0,0,66.61,68.8Z" transform="translate(0.07 -0.36)"/><path class="cls-8" d="M135.41,68.39v50.76h-14V68.39H103.55V56.24h49.68V68.39Z" transform="translate(0.07 -0.36)"/><path class="cls-8" d="M203.72,119.15l-5.85-13.59H171.5l-5.85,13.59H150.71l27.18-62.91h13.59l27.18,62.91ZM184.73,75l-7.92,18.27h15.75Z" transform="translate(0.07 -0.36)"/><path class="cls-8" d="M225.95,56.24h14V82.07l23.76-25.83h17.37l-25,27.81q3.24,4.5,12,16.78t13.05,18.32H264.74L246.29,94.31l-6.3,7v17.82h-14Z" transform="translate(0.07 -0.36)"/><path class="cls-8" d="M335.21,56.24V68.75H303.89v13h28.17v12H303.89v13H336.2v12.42H289.85V56.24Z" transform="translate(0.07 -0.36)"/><path class="cls-8" d="M392.72,56.24h14v62.91h-14l-30-39.42v39.42h-14V56.24h13.14l30.87,40.5Z" transform="translate(0.07 -0.36)"/><path class="cls-8" d="M522.48,119.15l-5.85-13.59H490.26l-5.85,13.59H469.47l27.18-62.91h13.59l27.18,62.91ZM503.49,75l-7.92,18.27h15.75Z" transform="translate(0.07 -0.36)"/><path class="cls-8" d="M544.71,56.24h14V82.07l23.76-25.83h17.37l-25,27.81q3.24,4.5,12,16.78t13.05,18.32H583.5L565,94.31l-6.3,7v17.82h-14Z" transform="translate(0.07 -0.36)"/><path class="cls-8" d="M654,56.24V68.75H622.65v13h28.17v12H622.65v13H655v12.42H608.61V56.24Z" transform="translate(0.07 -0.36)"/></svg>