<svg id="Layer_1" data-name="Layer 1" xmlns="http://www.w3.org/2000/svg" width="746.21" height="189.44" viewBox="0 0 746.21 189.44"><defs><style>.cls-1{opacity:0.2;}.cls-2{fill:#db1534;}.cls-3{fill:#da1934;}.cls-4{fill:#a41330;}</style></defs><title>stakentakeLong</title><polygon class="cls-2" points="373.66 0 373.66 26.71 432.48 26.71 465.23 189.44 497.98 26.71 556.8 26.71 556.8 0 373.66 0"/><path class="cls-3" d="M87.44,141.33a5.43,5.43,0,0,0-2,4.41,5,5,0,0,0,2.47,4.36q2.47,1.62,11.43,3.83t13.91,6.62q4.95,4.41,4.95,12.87a17,17,0,0,1-6.34,13.72q-6.34,5.26-16.7,5.26-14.94,0-26.91-11.07l8.37-10.26Q86.77,180,95.41,180a9.87,9.87,0,0,0,6.08-1.67,5.34,5.34,0,0,0,2.21-4.5,5.25,5.25,0,0,0-2.34-4.5q-2.34-1.66-9.27-3.37-11-2.61-16.06-6.79T70.93,146q0-9,6.44-13.82t16.06-4.86A38.65,38.65,0,0,1,106,129.5a33.76,33.76,0,0,1,11,6.12l-7.11,10.26q-8.19-6.21-16.92-6.21A8.47,8.47,0,0,0,87.44,141.33Z" transform="translate(-0.77 -72.89)"/><path class="cls-3" d="M156.25,140.93v50.76h-14V140.93H124.39V128.78h49.68v12.15Z" transform="translate(-0.77 -72.89)"/><path class="cls-3" d="M224.56,191.69l-5.85-13.59H192.34l-5.85,13.59H171.55l27.18-62.91h13.59l27.18,62.91Zm-19-44.19-7.92,18.27H213.4Z" transform="translate(-0.77 -72.89)"/><path class="cls-3" d="M246.79,128.78h14v25.83l23.76-25.83H302l-25,27.81q3.24,4.5,12,16.78T302,191.69H285.57l-18.45-24.84-6.3,7v17.82h-14Z" transform="translate(-0.77 -72.89)"/><path class="cls-3" d="M356,128.78v12.51H324.72v13h28.17v12H324.72v13H357v12.42H310.68V128.78Z" transform="translate(-0.77 -72.89)"/><path class="cls-3" d="M413.55,128.78h14v62.91h-14l-30-39.42v39.42h-14V128.78h13.14l30.87,40.5Z" transform="translate(-0.77 -72.89)"/><path class="cls-3" d="M543.31,191.69l-5.85-13.59H511.09l-5.85,13.59H490.3l27.18-62.91h13.59l27.18,62.91Zm-19-44.19-7.92,18.27h15.75Z" transform="translate(-0.77 -72.89)"/><path class="cls-3" d="M565.54,128.78h14v25.83l23.76-25.83h17.37l-25,27.81q3.24,4.5,12,16.78t13.05,18.32H604.33l-18.45-24.84-6.3,7v17.82h-14Z" transform="translate(-0.77 -72.89)"/><path class="cls-3" d="M674.8,128.78v12.51H643.48v13h28.17v12H643.48v13h32.31v12.42H629.44V128.78Z" transform="translate(-0.77 -72.89)"/><polygon class="cls-2" points="64.22 109.27 19.65 109.27 19.65 61.93 64.22 61.93 56.19 85.73 64.22 109.27"/><polygon class="cls-4" points="0 71.14 9.11 85.58 0 100.33 19.65 100.33 19.65 71.14 0 71.14"/><polygon class="cls-2" points="682 62.06 726.57 62.06 726.57 109.4 682 109.4 690.03 85.6 682 62.06"/><polygon class="cls-4" points="746.22 100.19 737.11 85.75 746.22 71.01 726.57 71.01 726.57 100.19 746.22 100.19"/></svg>